PathFileType	3	(X/Y/Z)	results
DataRate	CameraRate	NumFrames	NumMarkers	Units	OrigDataRate	OrigDataStartFrame	OrigNumFrames
30.0	30.0	4	85	mm	30.0	146	233
Frame#	Time	head			nose			neck			shoulder_r			elbow_r			wrist_r			shoulder_l			elbow_l			wrist_l			hip_r			knee_r			ankle_r			hip_l			knee_l			ankle_l			heel_r			heel_l			mtoe_r			ltoe_r			mtoe_l			ltoe_l			asis_l			asis_r			psi_r			psi_l			mhnd_r			lhnd_r			mhnd_l			lhnd_l			l_lat_knee			r_med_wrist			l_lat_ankle			r_med_ankle			r_lat_knee			xiphoid			l_med_ankle			r_med_knee			l_med_elbow			navel			r_lat_elbow			r_lat_wrist			l_med_wrist			l_lat_elbow			l_med_knee			r_med_elbow			r_lat_ankle			l_lat_wrist			chin			T10			r_eye			l_eye			l_ear			r_ear			spinal_cord_8			spinal_cord_12			spinal_cord_27			spinal_cord_33			up_arm_r_0			up_arm_r_5			up_arm_l_0			up_arm_l_5			front_torso_11			front_torso_7			front_torso_4			front_torso_1			front_torso_10			thigh_r_2			thigh_r_3			thigh_l_1			thigh_l_5			shank_l_0			shank_l_4			shank_r_1			shank_r_2			foot_r_1			foot_r_3			foot_r_5			foot_r_6			foot_r_7			foot_l_1			foot_l_7			foot_l_0			foot_l_4			foot_l_5			foot_l_6			
		X1	Y1	Z1	X2	Y2	Z2	X3	Y3	Z3	X4	Y4	Z4	X5	Y5	Z5	X6	Y6	Z6	X7	Y7	Z7	X8	Y8	Z8	X9	Y9	Z9	X10	Y10	Z10	X11	Y11	Z11	X12	Y12	Z12	X13	Y13	Z13	X14	Y14	Z14	X15	Y15	Z15	X16	Y16	Z16	X17	Y17	Z17	X18	Y18	Z18	X19	Y19	Z19	X20	Y20	Z20	X21	Y21	Z21	X22	Y22	Z22	X23	Y23	Z23	X24	Y24	Z24	X25	Y25	Z25	X26	Y26	Z26	X27	Y27	Z27	X28	Y28	Z28	X29	Y29	Z29	X30	Y30	Z30	X31	Y31	Z31	X32	Y32	Z32	X33	Y33	Z33	X34	Y34	Z34	X35	Y35	Z35	X36	Y36	Z36	X37	Y37	Z37	X38	Y38	Z38	X39	Y39	Z39	X40	Y40	Z40	X41	Y41	Z41	X42	Y42	Z42	X43	Y43	Z43	X44	Y44	Z44	X45	Y45	Z45	X46	Y46	Z46	X47	Y47	Z47	X48	Y48	Z48	X49	Y49	Z49	X50	Y50	Z50	X51	Y51	Z51	X52	Y52	Z52	X53	Y53	Z53	X54	Y54	Z54	X55	Y55	Z55	X56	Y56	Z56	X57	Y57	Z57	X58	Y58	Z58	X59	Y59	Z59	X60	Y60	Z60	X61	Y61	Z61	X62	Y62	Z62	X63	Y63	Z63	X64	Y64	Z64	X65	Y65	Z65	X66	Y66	Z66	X67	Y67	Z67	X68	Y68	Z68	X69	Y69	Z69	X70	Y70	Z70	X71	Y71	Z71	X72	Y72	Z72	X73	Y73	Z73	X74	Y74	Z74	X75	Y75	Z75	X76	Y76	Z76	X77	Y77	Z77	X78	Y78	Z78	X79	Y79	Z79	X80	Y80	Z80	X81	Y81	Z81	X82	Y82	Z82	X83	Y83	Z83	X84	Y84	Z84	X85	Y85	Z85	
146	4.866666666666666	-1724.914017594711	1563.506844635785	-612.409612470601	-1771.437557663894	1312.254229444408	-612.1276573512488	-2021.7369425853522	1320.576282474755	-591.8819207670273	-1974.0641698883937	1295.1419329460696	-419.07149854635617	-2071.6714160408815	1047.8496089204434	-273.5227084767964	-1940.116637163119	838.9782109581674	-387.1623112501228	-2085.772830925187	1324.4662666019035	-819.426232976811	-2311.665182279662	1163.623731180733	-947.0622546572849	-2404.8032890735253	907.8070221690509	-914.648614651449	-2366.8325689439216	851.6829900742143	-470.29863465155023	-2480.2378066390215	474.34484033647885	-490.5086778045246	-2870.4376804585527	380.4903254622276	-615.37345913447	-2340.611964781111	865.933767144665	-702.45094004216	-2088.9559453705497	561.8363686326003	-762.8135498572861	-2212.171870760327	161.24733007353785	-769.0616292609088	-2922.2311208333876	382.3374802473724	-640.8422611451398	-2248.060707064419	100.29019499926258	-777.118292341647	-2929.1098169995644	157.1797407649002	-582.0781508556715	-2941.711304610192	234.80459662249996	-533.9014636218099	-2019.3704330404576	66.76037116002918	-723.1591820734349	-2063.3269662055673	56.83008399132741	-815.4044770732795	-2253.314934677418	914.2056247335192	-742.0596515820141	-2297.1522229554816	891.8973793666474	-402.84331478968306	-2434.538931842502	993.4890995059989	-528.3298569469255	-2414.8113769301985	997.0802241483257	-643.5915912531136	-1925.496693103587	768.1186034734153	-399.28093482154463	-1885.1413632739393	786.5047693846757	-429.32154919892366	-2448.5479575742274	846.8901641241254	-928.4383639040003	-2419.9465926506314	824.6211415614595	-889.1726042358341	-2089.624461627546	573.1233200068781	-810.4109046552289	-1957.5291770084912	827.0481278648937	-360.2660691194661	-2209.6539794790447	144.4022438216957	-825.9777199320602	-2865.3911859994128	363.5864195742252	-652.9023138523471	-2503.022521963466	473.98616808783885	-453.75758820947163	-2066.378483606389	1102.5943259117685	-594.3817532165552	-2208.4576868685303	146.636730274053	-734.3040093926203	-2465.648987251183	471.0889182501215	-529.7956084703387	-2331.1752229010453	1196.4950568585768	-929.7169731563572	-2217.533427346522	901.6867623155435	-589.8840957200832	-2031.815160712431	1054.703767142887	-250.89537637049253	-1935.9115383564504	866.6189557587035	-412.4568932484318	-2412.7594961450845	918.7089435424989	-950.3244909656548	-2272.5968316877425	1149.3900875562044	-967.7832933422555	-2084.4520785763493	564.6751337255619	-714.232238356486	-2104.346203712159	1053.4481620555425	-300.46392004505486	-2903.717613943237	373.35705601559266	-572.4231267977253	-2378.79411953213	911.0626448751799	-888.9413255012714	-1852.345516265879	1265.1896052981301	-604.3628847329998	-2226.0691120468173	1258.2938357526925	-570.3724252449815	-1741.196692236109	1338.9442775011512	-575.0049787733759	-1749.2641153056868	1339.2080984937463	-657.5621143965988	-1844.9510160666603	1422.5434178506412	-711.2085605087999	-1829.752416823715	1421.4731714205461	-505.986207016168	-2019.5776347538904	1408.4058380962065	-588.5672260241937	-2151.5952371613707	1345.2385521345388	-577.8493166004815	-2323.966815166175	1114.2455362016954	-550.5206522112985	-2222.0867654207095	1240.2266518327	-571.7135409254277	-1984.4141063557022	1143.829733464624	-371.35644183414155	-2049.0164706386813	1174.219123452502	-297.9743173390281	-2109.170903555546	1278.2093751881825	-866.974269660533	-2277.9731888110564	1247.0721401770888	-908.3866985674406	-2224.2130418045217	952.625900079839	-525.5473746658441	-2104.8398570664294	1004.2565919256695	-592.9898893583121	-2036.3021308581178	1141.1263171929124	-678.2910164868474	-2211.3067078204053	985.1635109906243	-675.3590962584865	-1979.277536565283	1162.9249957000923	-499.6696787306994	-2422.108729211402	648.2324210487232	-498.2438752565024	-2472.934288202689	621.3365389828887	-413.23774833957316	-2170.1725593486435	639.417876089088	-698.7313498496586	-2253.104053871949	818.8269768070224	-812.3364054778739	-2158.3722083276616	251.78663456311384	-836.8149062757163	-2142.0183745250656	407.89568344787995	-713.025357592634	-2667.3660622607013	436.74808246732374	-483.9653202999466	-2669.343901261778	419.24619911337413	-596.5185031589515	-2939.368575134354	181.30842194982196	-564.8997567658372	-2940.4467648909535	204.67150883173755	-545.4344276793613	-2916.9604657032564	236.39969614452858	-615.8201232576237	-2914.4844397489865	260.0678234445655	-582.270817287087	-2932.026761509338	280.1032223227697	-556.4081412850749	-2038.3487094939358	54.83306954923925	-778.5352771435154	-2137.522814396381	100.52214006436117	-818.4375018196176	-2043.5835706369958	55.15308213645844	-795.3794288034073	-2032.5811345795103	54.50221026865997	-757.9670339747123	-2088.4436090077465	78.9978981631192	-776.7847207802243	-2122.680934300202	97.43115753590129	-751.3951118166443	
147	4.9	-1619.4861151037524	1564.9562626892648	-614.8401563285659	-1660.772018817305	1312.7940209889255	-616.2802726360891	-1919.8577533402495	1317.219188807914	-595.8521671937431	-1878.9196049583081	1295.0819741024175	-406.09441399897446	-2026.68301961774	1057.6247191977814	-289.2819844569096	-1977.982295832516	802.1609810251248	-368.1134377761234	-1996.201070923615	1303.3255487909653	-824.5523680229692	-2168.698147443828	1110.543331505584	-986.627674353374	-2173.606454432644	847.0926199357174	-910.8835610443182	-2253.2505052696383	845.8955948258227	-467.64885217383824	-2289.9202616372254	448.34276220521207	-477.2808993817361	-2688.9375517108638	483.0569830374855	-604.7012674628711	-2239.374998269729	850.5035637673175	-701.2543627160322	-2031.7194419370392	517.9414399376539	-773.4592931435458	-2186.572001684096	128.98952716119166	-794.1927170499497	-2735.6879013580437	501.91016078526974	-629.8475286219896	-2224.890458549487	67.09248018116111	-803.9509253491453	-2829.284008232391	294.40723529781195	-581.0740782618954	-2812.941827250846	369.2679196092781	-529.749425365566	-1994.1198978244286	47.80583514048167	-751.9120002401595	-2038.1380167919483	35.2079111414432	-843.8014956911214	-2153.994721811036	896.3515716097523	-747.384204451814	-2179.795617489507	888.1837895817852	-405.6903503650552	-2323.00105159377	985.8353086662568	-527.7528020271654	-2309.4360125738335	984.5819676813096	-643.9498710394603	-1989.0451986808105	729.6551894493496	-369.60009274694	-1945.472156584691	728.4556463805166	-400.7287508237388	-2194.3697798105077	773.771460742093	-913.6237680632042	-2161.4378261956194	768.8309958141554	-871.8287257601976	-2031.9336420812415	529.5391802402318	-820.9956960195549	-1997.8685434644617	800.9727498564826	-340.32753255349667	-2186.3453583094624	114.50487241502132	-851.8093942735458	-2689.2667335254073	465.4443183413559	-642.2420420775055	-2310.057665446002	449.0944132152308	-439.4005303722257	-1959.4125810957078	1098.2484209139113	-594.2811346723298	-2183.4613509838036	112.62444962815866	-760.1653013833167	-2275.354889461753	451.8626915166683	-516.6987169805623	-2196.3493706763506	1137.5022766944874	-970.1762411252256	-2105.9886039631833	894.000312892159	-588.79707230059	-1986.9156195449923	1054.105340734584	-265.7519058620411	-1965.0144047707477	822.710966404816	-396.94122662431596	-2183.443379060278	848.8550689302817	-947.6945642742861	-2125.508371693771	1105.941458279705	-1003.1128224103396	-2024.76947177818	519.0116416492044	-725.1504726437381	-2056.8731049289804	1072.3377670118757	-315.6808367095253	-2723.0386323137977	486.8169065205461	-561.9678165058764	-2151.037389732489	862.8506752998863	-886.5882589348868	-1740.674183622866	1264.0023611431736	-608.764536220706	-2123.1931716700155	1250.6649098957032	-578.0018827348563	-1631.0496455210834	1339.8464005208873	-579.0014427297269	-1639.2172097618059	1340.5218293029536	-661.5463895717047	-1736.6797358185456	1422.222193902426	-714.5068092167371	-1721.2225270566398	1420.0278080263163	-509.3127143033087	-1919.7978070334025	1405.1285142002107	-594.5764055693071	-2050.564381784734	1339.1399300676946	-585.6749093137381	-2218.2405044167467	1104.8539811113608	-557.1897863257967	-2118.7646813803394	1232.6701081067947	-578.8120636095854	-1919.735426457695	1144.521702494505	-375.3551416829013	-1979.2944023195084	1178.9890450971373	-299.5484969978401	-2004.2085077561987	1256.9609657498568	-876.8418697737915	-2157.390116999968	1195.954551617706	-940.026837953051	-2115.481946305517	946.2484236933284	-525.8793637411682	-1995.6329783824417	999.0922232455715	-591.5142332823925	-1928.0850286703862	1135.5183185566857	-678.3025902537923	-2099.4865527904135	975.5931863804483	-676.0521102578921	-1876.1751994276829	1162.7936890789845	-498.8757449056606	-2267.342628974982	634.8652105145097	-489.92245426406583	-2308.9299072568942	600.4438039024003	-402.6393941421857	-2099.5738070060834	603.9128378754733	-705.8928971261691	-2162.3015714848416	794.23283667675	-814.5892286574418	-2126.8500592330247	217.8761903889052	-859.1136425800438	-2096.0587785039484	366.64011619400395	-729.1808645868496	-2479.3556710088337	471.9875910611866	-471.94577742435445	-2486.0531036633706	456.0724067600407	-584.5526068985944	-2830.1353791449724	320.01288049009867	-563.0142139336864	-2822.8576496307155	341.3391075880599	-542.5661810421961	-2786.9593231025183	364.1674332557401	-611.1417449218367	-2776.707435599077	383.9349320394524	-576.5583431230781	-2786.111270959621	408.22740579160484	-550.1108126060283	-2012.7791937252414	34.74882728139021	-807.1414545949106	-2114.9266503026283	74.20878869637211	-846.1797734846646	-2018.1632700444939	34.75099473627475	-823.9415540551859	-2006.831906520215	34.767172616121485	-786.6217944208801	-2064.261874051769	55.754824690574324	-804.9542083673533	-2099.366235472564	72.01412525798706	-779.2650921523897	
148	4.933333333333334	-1516.14508648889	1566.7844767010085	-606.3828380137626	-1547.6318136370858	1313.2735061696178	-612.1421568529834	-1815.1381875643362	1311.7536599320733	-591.2641092343432	-1778.9967933524656	1290.6243749804084	-396.0239930150164	-1981.2912244795314	1088.2516048908947	-296.0872961741957	-2011.1155955904726	822.0305224859643	-341.746054608433	-1877.4432310828408	1274.718837656143	-815.4984908049832	-1988.626243344561	1079.796107544125	-1022.4576575545387	-1891.6033058592684	847.4408005806598	-913.990609411891	-2153.1322785362627	844.5381341431225	-465.7323245155083	-2076.9135010090235	442.12731765364396	-471.1694205220584	-2472.582987613561	549.777083712371	-563.4353966196277	-2144.3545076800956	837.198087961045	-699.5150700053991	-1976.907026523464	483.84442485646167	-780.4487186018602	-2188.842209560059	122.85630772771894	-801.9856186261721	-2515.3640258628516	577.929419053801	-582.877059769043	-2233.6764808100484	62.97069736254493	-811.4842055450883	-2653.411296302867	393.72960765606325	-548.093078211213	-2617.841262524249	456.8850497813758	-491.07052340447405	-2002.1609129149836	44.973603994151475	-762.3749136208831	-2047.5467999705934	29.874475876470825	-853.2160906664163	-2057.16718575219	874.8886858472262	-749.4908987216202	-2075.5937509947885	884.5780750103561	-407.35983285250535	-2214.675592401428	985.9329208340142	-531.159244245538	-2203.901542492873	978.2937384481634	-647.4042559033663	-2043.6142467701077	756.5765747695424	-335.3190666433644	-2001.979570652738	738.4442366617337	-363.7235436512633	-1881.545481850866	772.1656265550077	-907.1272900710782	-1850.871101481919	785.8468321225099	-865.5622286984741	-1978.8991730559492	495.81171923616074	-827.8424565789426	-2030.8533351597205	830.3993758555994	-315.11308261497925	-2193.228116912031	110.06396271716501	-859.835923815116	-2478.4389420528078	535.3027586123557	-601.8518746926711	-2092.3061680033975	448.88654427301816	-430.5726520173897	-1852.6493323481584	1092.4583071637107	-587.0555459114227	-2186.7678557899985	105.29539638098723	-768.4793747826719	-2063.419304998877	459.5865955851773	-509.55374928996264	-2022.8406015482672	1095.2285787693497	-1003.6629494747515	-1997.3704997565785	886.8283631389313	-585.0543276525973	-1945.092156751437	1076.4329966769992	-269.678117324841	-1992.0839807418463	833.906665760658	-372.04893177783515	-1900.0054331100716	840.6461908997718	-950.5714624409085	-1945.2760493363173	1089.482205999089	-1036.0677365093309	-1967.805321439883	484.6930095315302	-732.4393014964093	-2005.615575956031	1109.0535498135237	-324.3789811720682	-2502.5280728865328	555.7469603953683	-517.9291223932707	-1878.000504656133	873.7006535679609	-892.2345846049128	-1625.4838076238086	1261.2705980848007	-604.643297739933	-2018.5052575191326	1243.4391506906968	-582.9961149649195	-1518.5307843086505	1340.7691175765056	-574.6977538363012	-1527.7202194476197	1342.6556567812536	-657.1163731554	-1628.914865664396	1421.459080978303	-707.3992084166172	-1610.8934429050798	1416.065466435791	-502.4736256717575	-1815.978226188181	1399.6659006878656	-591.9066920048027	-1946.4059901407759	1332.4969740357337	-588.656980275389	-2113.161195519216	1097.1033219198548	-564.1800475905804	-2013.869468209033	1225.4792170989588	-583.1723351975147	-1852.2635365218393	1151.6089359412208	-371.81817578165686	-1909.2502605043685	1197.223829884938	-300.0288212056134	-1871.4987303917756	1238.8332423918023	-875.7054053797293	-2001.4456496621347	1154.6412935689257	-960.5832122855244	-2010.76191796373	940.300364836923	-523.8984478510648	-1888.0281163353152	993.0044784849222	-584.0887187048606	-1817.1559518826916	1128.2615338907417	-670.0520199832667	-1986.9078876121303	966.6095733216387	-673.5902388488857	-1775.3327084986502	1159.9002790614372	-488.71703947045796	-2107.059475997217	637.8237583186634	-485.09693390695554	-2132.993165045934	595.0772361921006	-395.47078732739504	-2032.0227926373268	577.1061036555074	-709.8407986302185	-2079.8448710048483	772.9001340073794	-816.373016140969	-2119.3286080818443	203.63121283586844	-867.7545307037444	-2061.1786568982116	342.611500263871	-736.3604734915504	-2258.9843318404187	495.3619796630688	-449.0425340979563	-2276.057719670825	489.1936990918826	-561.5098559409241	-2647.478468561071	416.76791496792123	-527.6830182189454	-2634.5727282444445	433.5333624462632	-505.81393053841526	-2596.9914214638966	454.59732970369356	-574.0516395105785	-2581.0165780179314	467.6642518577087	-538.4717743081994	-2583.370917178851	490.51916592309965	-509.3146437718032	-2021.6445565002555	30.410167053200766	-816.9390166848854	-2124.3524262601645	68.84598479937323	-855.5261024183741	-2027.2784104925665	29.95238990694258	-833.6507417203873	-2015.3921153694357	30.99069975066429	-796.5185128468092	-2073.0835770639947	51.502774436596624	-814.5659545215289	-2107.7970510266464	68.48802651965858	-788.8154656964932	
149	4.966666666666667	-1412.8155042918993	1572.2381926761786	-588.8498214376413	-1431.4108578163905	1317.5436697368364	-597.6423598517995	-1707.654883349889	1307.865801742431	-581.2277504779416	-1676.552630541837	1285.3318844207824	-392.8874575539755	-1920.9926517200201	1139.0272603301942	-289.4024280554947	-2024.6390185259231	887.8232739876407	-288.0357004606666	-1729.7325961807546	1252.3907549643222	-799.3009439033342	-1781.5978429173194	1061.5626061691858	-1031.8589870666683	-1584.6445868941723	912.9122738022429	-912.3598940399062	-2054.3206833296886	838.6764484004965	-467.0993677090036	-1838.8888024584685	476.19571502400527	-460.1757120790611	-2246.2224793232413	566.9279189894614	-510.2033840519785	-2044.8969978274572	833.7258181258576	-700.9197753713553	-1934.867843993641	458.4315542757413	-781.0085573610932	-2195.0774322798516	130.14407655392884	-795.5372432802814	-2295.6574424736614	592.7600289579093	-525.0600213176212	-2246.4913783376664	74.26460038761273	-803.7955771543683	-2389.7125189736007	384.6878075400407	-479.71536312351606	-2363.821128376683	454.749358627081	-425.6189317996371	-2015.0923619997209	46.46035434295761	-758.8901739104222	-2063.106150285295	31.030916666732857	-848.3138310052882	-1954.7617598985826	865.120688650098	-750.0094353632762	-1974.198767669891	871.7537355202522	-407.86137644747976	-2104.2585970364325	985.3001014941349	-530.8838183088395	-2093.495373258121	978.3595603420681	-647.1736368515626	-2074.068073308935	836.2513939746365	-271.33846986259636	-2039.5132812547135	802.4327519551892	-294.38859031339774	-1539.4577412613417	852.5097881595306	-901.210655918543	-1519.3568095260975	882.095161390706	-861.5066818371673	-1937.390190631524	469.6665291904955	-828.556600770461	-2040.92480836436	906.0394448052522	-264.121783230069	-2204.382082746544	119.37868200308344	-853.217983952367	-2255.1409033295195	553.2931198539648	-548.3370705091126	-1852.4516357711907	494.8090139294457	-417.29701829057717	-1743.5081391596293	1088.3798515749115	-573.7637394289904	-2193.5662943280895	111.71014766239622	-762.4727055532255	-1838.1314252866798	506.5106532635941	-500.03128499595886	-1816.839989948838	1059.6600297118891	-1009.1346432335391	-1886.3937208525433	881.4629651414423	-574.7675836229886	-1889.3817320814617	1122.9932113329303	-259.55019590525404	-2003.4128754015503	888.2336872018845	-319.1932343269502	-1588.597550912827	900.4302448956156	-948.1857827410428	-1746.7882127275714	1089.1330934987525	-1045.5137279082403	-1923.3049942558516	458.67233695839354	-733.5345179207392	-1939.052165670791	1161.2400249408556	-321.10828668680244	-2271.80944361658	570.1136661044612	-461.84713495063903	-1585.5069230907857	943.8897292360426	-892.6724786173701	-1506.601559475518	1261.6030667635505	-591.4394872932697	-1910.5892832418224	1237.7998266902682	-582.563985718789	-1404.0683231026205	1346.04733004577	-559.6306640686865	-1412.6099882330072	1348.3962231979592	-642.1070620051316	-1517.2041798037694	1422.5618899387393	-692.4876989262706	-1500.7515375442085	1415.7763957447655	-487.4715413907095	-1709.1924983999738	1395.7254539300736	-584.0558080507402	-1839.033577512064	1327.3920284933197	-586.3933466461923	-2004.9181618871983	1091.043621175915	-565.4571283599586	-1905.800951299387	1219.8865760410738	-582.046164218822	-1778.036572890835	1167.0749389907514	-361.3353762168606	-1827.9201301457545	1230.3558310461199	-298.17624301765954	-1717.3623467605871	1230.668821471565	-865.0513821769457	-1814.7100701557158	1115.8596894389655	-957.3607106941394	-1903.607838982335	936.2456272979092	-515.766221388271	-1778.1648241921475	988.6867845056963	-570.3386817881333	-1703.7597597713304	1122.536316943765	-655.5162196286883	-1871.6963700912881	959.2081409250875	-664.5049272733903	-1672.3395535516534	1158.8936576285444	-472.96901077530276	-1939.7231634814623	660.0153536824797	-480.371371400091	-1938.6700641007797	620.5957273353877	-385.62090136092354	-1972.2083276553183	559.8588553972712	-710.1998147301243	-1996.3011287819627	758.6979822764865	-819.0754567459591	-2118.928608465228	202.20038527075707	-864.0319210831926	-2035.091945413173	328.987434852167	-734.1943557423108	-2020.1717920134076	519.7850335226369	-418.8264098773793	-2047.876275917726	516.0195167588192	-529.2652128174637	-2387.1676549480485	408.7889845890216	-459.83598864536646	-2376.415995417299	428.21228431895963	-439.0265532089161	-2349.1666559886035	455.4284117722662	-509.94330841437164	-2333.6391077952903	472.0919779994772	-475.6929406321514	-2338.4922027183193	494.45253497221603	-446.46142968121916	-2036.4280505211707	31.33036743704428	-812.6006877565264	-2137.9913219802456	73.59706828515102	-850.1986886579851	-2042.4381050351542	30.676629677649654	-829.1742660082327	-2029.7140355927063	32.18091882280689	-792.3367892868687	-2086.735537298242	54.9484301800788	-809.7995748957171	-2120.030574620726	74.31225180994858	-783.855507381348	
